<svg xmlns="http://www.w3.org/2000/svg" id="圖層_1" data-name="圖層 1" viewBox="0 0 338.34 338.34" width="338.34" height="338.34"><metadata><rdf:RDF xmlns:rdf="http://www.w3.org/1999/02/22-rdf-syntax-ns#" xmlns:dc="http://purl.org/dc/elements/1.1/"><rdf:Description><dc:creator>RealFaviconGenerator</dc:creator><dc:source>https://realfavicongenerator.net</dc:source></rdf:Description></rdf:RDF></metadata><defs><style>.cls-1{fill:#a7a5d1;stroke:#a7a5d1;stroke-miterlimit:10;stroke-width:20px;}.cls-2{fill:#b6d673;}</style></defs><path class="cls-1" d="M220.35,14.39q-9.4-.73-17.46-.73-31.24,0-53.83,7.56t-37,19.9a77.27,77.27,0,0,0-21.24,28.2A80.89,80.89,0,0,0,84,101.55q0,18.8,7.2,32.47a81.28,81.28,0,0,0,18.92,23.8,122.5,122.5,0,0,0,19.15,13.52l32-32q-2.94-1.65-5.72-3.38a71.54,71.54,0,0,1-18.92-16.6q-7.2-9.28-7.2-22.22,0-21,17.58-33.45t54.93-12.45a246.62,246.62,0,0,1,36.38,2.81l1.63.26L220.42,14.39Z"></path><path class="cls-1" d="M270.12,200.91a83.37,83.37,0,0,0-18.92-24.3,125.17,125.17,0,0,0-26.73-17.94L221.06,157l-32,32a161.21,161.21,0,0,1,16.72,8.88,71.24,71.24,0,0,1,18.92,16.36q7.2,9.16,7.2,22.1a50.26,50.26,0,0,1-4.27,21.24A38.8,38.8,0,0,1,214,273.29q-9.41,6.48-24.17,9.77T154,286.36a310.19,310.19,0,0,1-51.88-3.91A226.58,226.58,0,0,1,61,271.71v42q8.29,2.19,18.55,4.15t21.85,3.42q11.6,1.46,24.17,2.44t25.27,1a219.7,219.7,0,0,0,51.39-5.62q23.31-5.61,39.92-17a81,81,0,0,0,25.88-28.44q9.27-17.09,9.27-39.8Q277.32,214.83,270.12,200.91Z"></path><polygon class="cls-2" points="218.6 112.12 95.63 235.09 152 266.81 274.97 143.83 218.6 112.12"></polygon></svg>